# xmcd
#
# Track frame offsets:
#	150
#	7897
#	22921
#	39443
#	60058
#	79870
#	98485
#	109937
#	125303
#	142672
#	156904
#	173407
#	187210
#	200026
#	214856
#	228240
#	245601
#	267840
#	282766
#	298260
#	309028
#
# Disc length: 4322 seconds
#
# Revision: 0
# Processed by: cddbd v1.5.2PL0 Copyright (c) Steve Scherf et al.
# Submitted via: EasyCDDAExtractor 10.0.1.1
#
DISCID=1010e015
DTITLE=Epsilon - Dernier jour avant apocalypse
DYEAR=2006
DGENRE=Rap
TTITLE0=intro 
TTITLE1=entre dans nos mondes 
TTITLE2=jours de défaite
TTITLE3=a traves les masques 
TTITLE4=c'est vraiment pas évident feat PHONKNEG'Z 
TTITLE5=ghetto soldiers feat B.H. hit 
TTITLE6=on tend les majeurs 
TTITLE7=make money 
TTITLE8=gangstaz
TTITLE9=j'essaye d'y croire 
TTITLE10=donne moi 3 min (solo elips)
TTITLE11=ghetto S promo 
TTITLE12=au contact 
TTITLE13=course chrono
TTITLE14=qu'est ce qu'on serais 
TTITLE15=rap classic 
TTITLE16=graine de violence
TTITLE17=freestyle (solo donovan)
TTITLE18=héritiés
TTITLE19=ravages vrai 
TTITLE20=regarde moi 
EXTD=
EXTT0=
EXTT1=
EXTT2=
EXTT3=
EXTT4=
EXTT5=
EXTT6=
EXTT7=
EXTT8=
EXTT9=
EXTT10=
EXTT11=
EXTT12=
EXTT13=
EXTT14=
EXTT15=
EXTT16=
EXTT17=
EXTT18=
EXTT19=
EXTT20=
PLAYORDER=
